{"accessors" : [{"bufferView" : 0, "byteOffset" : 0, "componentType" : 5123, "count" : 29952, "type" : "SCALAR", "max" : [24892], "min" : [0]}, {"bufferView" : 1, "byteOffset" : 0, "componentType" : 5126, "count" : 24893, "type" : "VEC3", "max" : [3.5810000896453857, 3.3643999099731445, 1.9128999710083008], "min" : [-3.5810000896453857, -3.404900074005127, 0.0044999998062849045], "name" : "POSITION"}, {"bufferView" : 1, "byteOffset" : 12, "componentType" : 5126, "count" : 24893, "type" : "VEC2", "max" : [1, 1], "min" : [0, 0], "name" : "TEXCOORD_0"}, {"bufferView" : 1, "byteOffset" : 20, "componentType" : 5126, "count" : 24893, "type" : "VEC3", "max" : [0.9999951720237732, 1.0000044107437134, 1.0000044107437134], "min" : [-0.9999951720237732, -1.0000044107437134, -1.0000044107437134], "name" : "NORMAL"}], "asset" : {"generator" : "Aspose.3D 24.1.0", "version" : "2.0"}, "buffers" : [{"uri" : "data:application/octet-stream;base64,", "byteLength" : 1018376}], "bufferViews" : [{"buffer" : 0, "byteOffset" : 0, "byteLength" : 59904, "target" : 34963}, {"buffer" : 0, "byteOffset" : 59908, "byteLength" : 958464, "byteStride" : 32, "target" : 34962}], "meshes" : [{"primitives" : [{"attributes" : {"POSITION" : 1, "TEXCOORD_0" : 2, "NORMAL" : 3}, "indices" : 0, "mode" : 4}], "name" : ""}], "nodes" : [{"mesh" : 0, "name" : "16934_athletic_mouthguard"}], "scene" : 0, "scenes" : [{"nodes" : [0]}]}